IKResults
version=1
nRows=9
nColumns=42
inDegrees=yes

Units are S.I. units (second, meters, Newtons, ...)
Angles are in degrees.

endheader
time	pelvis_tilt	pelvis_list	pelvis_rotation	pelvis_tx	pelvis_ty	pelvis_tz	hip_flexion_r	hip_adduction_r	hip_rotation_r	knee_angle_r	knee_adduction_r	knee_angle_r_beta	ankle_angle_r	subtalar_angle_r	mtp_angle_r	hip_flexion_l	hip_adduction_l	hip_rotation_l	knee_angle_l	knee_adduction_l	knee_angle_l_beta	ankle_angle_l	subtalar_angle_l	mtp_angle_l	lumbar_extension	lumbar_bending	lumbar_rotation	arm_flex_r	arm_add_r	arm_rot_r	elbow_flex_r	pro_sup_r	wrist_flex_r	wrist_dev_r	arm_flex_l	arm_add_l	arm_rot_l	elbow_flex_l	pro_sup_l	wrist_flex_l	wrist_dev_l
      2.56333333	     -0.85381196	     -0.77032539	      5.81157930	      0.61737438	      0.96183502	      0.03447944	      6.33314880	     -1.11669545	     -6.99076059	     12.24385039	      6.47602164	      0.21369550	      9.32770685	     -8.82166083	      6.43632346	     27.57578404	     -2.91454491	      3.34547688	     16.77419153	      5.09547410	      0.29276487	      9.99497682	     -3.75056225	      2.06444644	    -16.86298652	      3.08081325	     -7.13478414	      3.02909765	    -24.32608322	      0.17914766	     75.00014203	     45.00000026	      0.00000000	      0.00000000	      0.90578962	    -23.90420644	      0.66012294	     75.00014203	     45.00000026	      0.00000000	      0.00000000
      2.56999134	     -0.96278905	     -0.81223012	      5.84424242	      0.61742801	      0.96170341	      0.03449995	      6.43281488	     -1.07884636	     -7.01106862	     12.20184147	      6.47602164	      0.21296231	      9.26135371	     -8.83877706	      6.35468186	     27.69525082	     -2.94831801	      3.33173829	     16.82074084	      5.09547410	      0.29357731	     10.00067852	     -3.59818999	      1.95349557	    -16.74227582	      3.11567158	     -7.15778562	      2.98603800	    -24.33095887	      0.17428446	     75.00014267	     45.00000026	      0.00000000	      0.00000000	      0.86666868	    -23.87999262	      0.65251056	     75.00014267	     45.00000026	      0.00000000	      0.00000000
      2.57664935	     -1.01830966	     -0.82561001	      5.85138852	      0.61739380	      0.96162771	      0.03453145	      6.49048851	     -1.06738444	     -7.00417981	     12.18164671	      6.47602164	      0.21260984	      9.21817811	     -8.85083279	      6.26732403	     27.75739736	     -2.96009859	      3.32714481	     16.87619464	      5.09547410	      0.29454516	     10.02204114	     -3.54681886	      1.87315828	    -16.69989792	      3.12037099	     -7.15211264	      2.96677192	    -24.33724359	      0.17325531	     75.00014325	     45.00000026	      0.00000000	      0.00000000	      0.86075645	    -23.89899014	      0.65325627	     75.00014325	     45.00000026	      0.00000000	      0.00000000
      2.58330736	     -0.99158115	     -0.83340794	      5.86064192	      0.61730720	      0.96168246	      0.03449620	      6.46505162	     -1.05963670	     -7.02525633	     12.18286714	      6.47602164	      0.21263114	      9.21292699	     -8.84883537	      6.27771184	     27.70724517	     -2.96424992	      3.37093258	     16.87450542	      5.09547410	      0.29451568	      9.96496817	     -3.59872949	      1.85388895	    -16.76253174	      3.13556044	     -7.14311565	      2.97958230	    -24.37315661	      0.17674962	     75.00014377	     45.00000026	      0.00000000	      0.00000000	      0.89209225	    -23.88602016	      0.65685155	     75.00014377	     45.00000026	      0.00000000	      0.00000000
      2.58996537	     -1.06325112	     -0.83291316	      5.85327540	      0.61729881	      0.96159052	      0.03455477	      6.54120396	     -1.06318117	     -6.99681728	     12.16650648	      6.47602164	      0.21234560	      9.17832006	     -8.85758518	      6.20056058	     27.78115671	     -2.96875928	      3.34366556	     16.93491607	      5.09547410	      0.29557004	      9.99008344	     -3.55662350	      1.79246569	    -16.70085719	      3.11743948	     -7.12572512	      2.94591918	    -24.36681095	      0.17349442	     75.00014434	     45.00000026	      0.00000000	      0.00000000	      0.88394751	    -23.91026507	      0.65773070	     75.00014434	     45.00000026	      0.00000000	      0.00000000
      2.59662338	     -1.05272292	     -0.84265898	      5.86671679	      0.61725002	      0.96160761	      0.03454277	      6.52836127	     -1.05264652	     -7.01493171	     12.15890448	      6.47602164	      0.21221292	      9.17228269	     -8.85420873	      6.18267163	     27.75485689	     -2.97609363	      3.38395625	     16.95899594	      5.09547410	      0.29599032	      9.97082052	     -3.56635139	      1.77125303	    -16.73608086	      3.13111519	     -7.12032955	      2.94000503	    -24.39465600	      0.17400961	     75.00014485	     45.00000026	      0.00000000	      0.00000000	      0.90268232	    -23.90957338	      0.66046661	     75.00014485	     45.00000026	      0.00000000	      0.00000000
      2.60328139	     -1.03604556	     -0.84081205	      5.86883425	      0.61717221	      0.96164095	      0.03453261	      6.51671796	     -1.05468655	     -7.03434376	     12.16856644	      6.47602164	      0.21238155	      9.17551330	     -8.85250718	      6.22673810	     27.71593396	     -2.97666947	      3.40121733	     16.97664368	      5.09547410	      0.29629833	      9.92785424	     -3.61783261	      1.77325178	    -16.78375785	      3.13067277	     -7.10849295	      2.94969133	    -24.41539689	      0.17733468	     75.00014537	     45.00000026	      0.00000000	      0.00000000	      0.93275478	    -23.90706644	      0.66470637	     75.00014537	     45.00000026	      0.00000000	      0.00000000
      2.60993939	     -0.98918243	     -0.79843558	      5.87738695	      0.61710655	      0.96173487	      0.03452667	      6.46797118	     -1.09931509	     -7.05829238	     12.19037532	      6.47602164	      0.21276219	      9.32065211	     -8.82071995	      6.70934436	     27.63325815	     -2.93111385	      3.45848410	     16.98871503	      5.09547410	      0.29650901	      9.89556938	     -3.67788913	      1.83913319	    -16.87859578	      3.08242425	     -7.10333958	      2.95700695	    -24.39025959	      0.18210164	     75.00014610	     45.00000026	      0.00000000	      0.00000000	      0.97227804	    -23.93599168	      0.67257753	     75.00014610	     45.00000026	      0.00000000	      0.00000000
      2.61659740	     -1.10504103	     -0.84903801	      5.85786184	      0.61712107	      0.96154966	      0.03459756	      6.59983592	     -1.04651157	     -6.99892807	     12.17388776	      6.47602164	      0.21247442	      9.25028992	     -8.85054509	      6.53766656	     27.76803886	     -2.99772244	      3.38650021	     17.08023125	      5.09547410	      0.29810627	      9.93665899	     -3.58728763	      1.76853762	    -16.74412902	      3.12180703	     -7.07303285	      2.91307741	    -24.43009524	      0.17652155	     75.00014671	     45.00000026	      0.00000000	      0.00000000	      0.94593266	    -23.91953765	      0.66765622	     75.00014671	     45.00000026	      0.00000000	      0.00000000
